<?xml version="1.0" encoding="UTF-8" standalone="no"?>
<!DOCTYPE svg PUBLIC "-//W3C//DTD SVG 1.1//EN" "http://www.w3.org/Graphics/SVG/1.1/DTD/svg11.dtd">
<!-- Microsoft Visio、SVG Export により生成 certipy_logics.svg 証明書の確認 -->
<svg xmlns="http://www.w3.org/2000/svg" xmlns:xlink="http://www.w3.org/1999/xlink" xmlns:ev="http://www.w3.org/2001/xml-events"
		xmlns:v="http://schemas.microsoft.com/visio/2003/SVGExtensions/" width="16.5354in" height="22.8858in"
		viewBox="0 0 1190.55 1647.78" xml:space="preserve" color-interpolation-filters="sRGB" class="st20">
	<v:documentProperties v:langID="1041" v:metric="true" v:viewMarkup="false">
		<v:userDefs>
			<v:ud v:nameU="msvSubprocessMaster" v:prompt="" v:val="VT4(Rectangle)"/>
			<v:ud v:nameU="msvNoAutoConnect" v:val="VT0(1):26"/>
		</v:userDefs>
	</v:documentProperties>

	<style type="text/css">
	<![CDATA[
		.st1 {visibility:visible}
		.st2 {fill:#5b9bd5;fill-opacity:0.22;filter:url(#filter_2);stroke:#5b9bd5;stroke-opacity:0.22}
		.st3 {fill:#5b9bd5;stroke:#c7c8c8;stroke-width:0.25}
		.st4 {fill:#feffff;font-family:ＭＳ Ｐゴシック;font-size:0.833336em}
		.st5 {font-family:Calibri;font-size:1em}
		.st6 {fill:#feffff;font-family:Calibri;font-size:0.833336em}
		.st7 {font-family:ＭＳ Ｐゴシック;font-size:1em}
		.st8 {fill:#ff0000;stroke:#c7c8c8;stroke-width:0.25}
		.st9 {fill:#feffff;font-family:Lucida Console;font-size:0.833336em}
		.st10 {fill:none;stroke:none;stroke-width:0.25}
		.st11 {fill:#5b9bd5;font-family:Calibri;font-size:1.00001em}
		.st12 {font-size:1em}
		.st13 {fill:#feffff;font-family:ＭＳ Ｐゴシック;font-size:0.666664em}
		.st14 {marker-end:url(#mrkr4-55);stroke:#5b9bd5;stroke-linecap:round;stroke-linejoin:round;stroke-width:1}
		.st15 {fill:#5b9bd5;fill-opacity:1;stroke:#5b9bd5;stroke-opacity:1;stroke-width:0.28409090909091}
		.st16 {fill:#70ad47;stroke:#c7c8c8;stroke-width:0.25}
		.st17 {fill:#ed7d31;stroke:#c7c8c8;stroke-width:0.25}
		.st18 {fill:#feffff;font-family:ＭＳ Ｐゴシック;font-size:0.499992em}
		.st19 {fill:#feffff;font-family:Calibri;font-size:0.666664em}
		.st20 {fill:none;fill-rule:evenodd;font-size:12px;overflow:visible;stroke-linecap:square;stroke-miterlimit:3}
	]]>
	</style>

	<defs id="Markers">
		<g id="lend4">
			<path d="M 2 1 L 0 0 L 2 -1 L 2 1 " style="stroke:none"/>
		</g>
		<marker id="mrkr4-55" class="st15" v:arrowType="4" v:arrowSize="2" v:setback="7.04" refX="-7.04" orient="auto"
				markerUnits="strokeWidth" overflow="visible">
			<use xlink:href="#lend4" transform="scale(-3.52,-3.52) "/>
		</marker>
	</defs>
	<defs id="Filters">
		<filter id="filter_2">
			<feGaussianBlur stdDeviation="2"/>
		</filter>
	</defs>
	<g v:mID="0" v:index="1" v:groupContext="foregroundPage">
		<v:userDefs>
			<v:ud v:nameU="msvThemeOrder" v:val="VT0(0):26"/>
		</v:userDefs>
		<title>証明書の確認</title>
		<v:pageProperties v:drawingScale="0.0393701" v:pageScale="0.0393701" v:drawingUnits="24" v:shadowOffsetX="8.50394"
				v:shadowOffsetY="-8.50394"/>
		<v:layer v:name="コネクタ" v:index="0"/>
		<g id="shape2-1" v:mID="2" v:groupContext="shape" transform="translate(28.3465,-1528.72)">
			<title>平行四辺形</title>
			<desc>証明書 &#38; FQDN</desc>
			<v:userDefs>
				<v:ud v:nameU="visVersion" v:prompt="" v:val="VT0(15):26"/>
			</v:userDefs>
			<v:textBlock v:margins="rect(4,4,4,4)" v:tabSpace="42.5197"/>
			<v:textRect cx="56.6929" cy="1605.26" width="113.39" height="85.0394"/>
			<g id="shadow2-2" v:groupContext="shadow" v:shadowOffsetX="0.345598" v:shadowOffsetY="-1.97279" v:shadowType="1"
					transform="matrix(1,0,0,1,0.345598,1.97279)" class="st1">
				<path d="M0 1647.78 L102.05 1647.78 L113.39 1562.74 L11.34 1562.74 L0 1647.78 Z" class="st2"/>
			</g>
			<path d="M0 1647.78 L102.05 1647.78 L113.39 1562.74 L11.34 1562.74 L0 1647.78 Z" class="st3"/>
			<text x="41.69" y="1596.59" class="st4" v:langID="1041"><v:paragraph v:horizAlign="1"/><v:tabList/>証明書<v:newlineChar/><tspan
						x="53.28" dy="1.233em" class="st5">&#38;<v:newlineChar/></tspan><tspan x="44.73" dy="1.2em" class="st5">FQDN</tspan></text>		</g>
		<g id="shape3-9" v:mID="3" v:groupContext="shape" transform="translate(175.748,-1528.72)">
			<title>長方形</title>
			<desc>証明書の形式確認</desc>
			<v:userDefs>
				<v:ud v:nameU="visVersion" v:val="VT0(15):26"/>
			</v:userDefs>
			<v:textBlock v:margins="rect(4,4,4,4)" v:tabSpace="42.5197"/>
			<v:textRect cx="56.6929" cy="1605.26" width="113.39" height="85.0394"/>
			<g id="shadow3-10" v:groupContext="shadow" v:shadowOffsetX="0.345598" v:shadowOffsetY="-1.97279" v:shadowType="1"
					transform="matrix(1,0,0,1,0.345598,1.97279)" class="st1">
				<rect x="0" y="1562.74" width="113.386" height="85.0394" class="st2"/>
			</g>
			<rect x="0" y="1562.74" width="113.386" height="85.0394" class="st3"/>
			<text x="16.69" y="1608.59" class="st4" v:langID="1041"><v:paragraph v:horizAlign="1"/><v:tabList/>証明書の形式確認</text>		</g>
		<g id="shape5-15" v:mID="5" v:groupContext="shape" transform="translate(323.15,-1528.72)">
			<title>ひし形</title>
			<desc>X.509/PEM形式の証明書</desc>
			<v:userDefs>
				<v:ud v:nameU="visVersion" v:prompt="" v:val="VT0(15):26"/>
			</v:userDefs>
			<v:textBlock v:margins="rect(4,4,4,4)" v:tabSpace="42.5197"/>
			<v:textRect cx="56.6929" cy="1605.26" width="113.39" height="85.0394"/>
			<g id="shadow5-16" v:groupContext="shadow" v:shadowOffsetX="0.345598" v:shadowOffsetY="-1.97279" v:shadowType="1"
					transform="matrix(1,0,0,1,0.345598,1.97279)" class="st1">
				<path d="M56.69 1647.78 L113.39 1605.26 L56.69 1562.74 L0 1605.26 L56.69 1647.78 Z" class="st2"/>
			</g>
			<path d="M56.69 1647.78 L113.39 1605.26 L56.69 1562.74 L0 1605.26 L56.69 1647.78 Z" class="st3"/>
			<text x="4" y="1608.59" class="st6" v:langID="1041"><v:paragraph v:horizAlign="1"/><v:tabList/>X.509/PEM<tspan
						class="st7">形式</tspan><tspan class="st7">の</tspan><tspan class="st7">証明書</tspan></text>		</g>
		<g id="shape6-24" v:mID="6" v:groupContext="shape" transform="translate(465.822,-1528.72)">
			<title>楕円</title>
			<desc>exit 1</desc>
			<v:userDefs>
				<v:ud v:nameU="visVersion" v:val="VT0(15):26"/>
			</v:userDefs>
			<v:textBlock v:margins="rect(4,4,4,4)" v:tabSpace="42.5197"/>
			<v:textRect cx="63.7795" cy="1605.26" width="111.62" height="74.4094"/>
			<g id="shadow6-25" v:groupContext="shadow" v:shadowOffsetX="0.345598" v:shadowOffsetY="-1.97279" v:shadowType="1"
					transform="matrix(1,0,0,1,0.345598,1.97279)" class="st1">
				<path d="M0 1605.26 A63.7795 42.5197 0 0 1 127.56 1605.26 A63.7795 42.5197 0 0 1 0 1605.26 Z" class="st2"/>
			</g>
			<path d="M0 1605.26 A63.7795 42.5197 0 0 1 127.56 1605.26 A63.7795 42.5197 0 0 1 0 1605.26 Z" class="st8"/>
			<text x="45.7" y="1608.26" class="st9" v:langID="1041"><v:paragraph v:horizAlign="1"/><v:tabList/>exit 1</text>		</g>
		<g id="shape9-30" v:mID="9" v:groupContext="shape" transform="translate(422.832,-1573.92)">
			<title>シート.9</title>
			<desc>NO</desc>
			<v:textBlock v:margins="rect(4,4,4,4)" v:tabSpace="42.5197"/>
			<v:textRect cx="25.0416" cy="1637.78" width="50.09" height="20"/>
			<rect x="0" y="1627.78" width="50.0832" height="20" class="st10"/>
			<text x="17.2" y="1641.38" class="st11" v:langID="1041"><v:paragraph v:horizAlign="1"/><v:tabList/>NO</text>		</g>
		<g id="shape10-33" v:mID="10" v:groupContext="shape" transform="translate(472.909,-1403.84)">
			<title>長方形.10</title>
			<desc>証明書のサブジェクトの コモンネームの確認</desc>
			<v:userDefs>
				<v:ud v:nameU="visVersion" v:val="VT0(15):26"/>
			</v:userDefs>
			<v:textBlock v:margins="rect(4,4,4,4)" v:tabSpace="42.5197"/>
			<v:textRect cx="56.6929" cy="1605.26" width="113.39" height="85.0394"/>
			<g id="shadow10-34" v:groupContext="shadow" v:shadowOffsetX="0.345598" v:shadowOffsetY="-1.97279" v:shadowType="1"
					transform="matrix(1,0,0,1,0.345598,1.97279)" class="st1">
				<rect x="0" y="1562.74" width="113.386" height="85.0394" class="st2"/>
			</g>
			<rect x="0" y="1562.74" width="113.386" height="85.0394" class="st3"/>
			<text x="6.81" y="1601.93" class="st4" v:langID="1041"><v:paragraph v:horizAlign="1"/><v:tabList/>証明書のサブジェクトの<v:newlineChar/><tspan
						x="14.56" dy="1.331em" class="st12">コモンネームの</tspan>確認</text>		</g>
		<g id="shape11-40" v:mID="11" v:groupContext="shape" transform="translate(623.622,-1403.84)">
			<title>ひし形.11</title>
			<desc>証明書のサブジェクトに コモンネームが含まれている</desc>
			<v:userDefs>
				<v:ud v:nameU="visVersion" v:prompt="" v:val="VT0(15):26"/>
			</v:userDefs>
			<v:textBlock v:margins="rect(4,4,4,4)" v:tabSpace="42.5197"/>
			<v:textRect cx="56.6929" cy="1605.26" width="113.39" height="85.0394"/>
			<g id="shadow11-41" v:groupContext="shadow" v:shadowOffsetX="0.345598" v:shadowOffsetY="-1.97279" v:shadowType="1"
					transform="matrix(1,0,0,1,0.345598,1.97279)" class="st1">
				<path d="M56.69 1647.78 L113.39 1605.26 L56.69 1562.74 L0 1605.26 L56.69 1647.78 Z" class="st2"/>
			</g>
			<path d="M56.69 1647.78 L113.39 1605.26 L56.69 1562.74 L0 1605.26 L56.69 1647.78 Z" class="st3"/>
			<text x="17.02" y="1602.6" class="st13" v:langID="1041"><v:paragraph v:horizAlign="1"/><v:tabList/>証明書のサブジェクトに<v:newlineChar/><tspan
						x="8.58" dy="1.331em" class="st12">コモンネームが</tspan>含まれている</text>		</g>
		<g id="shape20-47" v:mID="20" v:groupContext="shape" transform="translate(375.114,-1508.72)">
			<title>シート.20</title>
			<desc>YES</desc>
			<v:textBlock v:margins="rect(4,4,4,4)" v:tabSpace="42.5197"/>
			<v:textRect cx="17.955" cy="1637.78" width="35.92" height="20"/>
			<rect x="0" y="1627.78" width="35.91" height="20" class="st10"/>
			<text x="9.34" y="1641.38" class="st11" v:langID="1041"><v:paragraph v:horizAlign="1"/><v:tabList/>YES</text>		</g>
		<g id="shape22-50" v:mID="22" v:groupContext="shape" v:layerMember="0" transform="translate(136.063,-1564.16)">
			<title>動的コネクタ</title>
			<path d="M0 1640.69 L32.65 1640.69" class="st14"/>
		</g>
		<g id="shape23-56" v:mID="23" v:groupContext="shape" v:layerMember="0" transform="translate(289.134,-1564.16)">
			<title>動的コネクタ.23</title>
			<path d="M0 1640.69 L26.98 1640.69" class="st14"/>
		</g>
		<g id="shape24-61" v:mID="24" v:groupContext="shape" v:layerMember="0" transform="translate(436.535,-1564.16)">
			<title>動的コネクタ.24</title>
			<path d="M0 1640.69 L22.25 1640.69" class="st14"/>
		</g>
		<g id="shape25-66" v:mID="25" v:groupContext="shape" v:layerMember="0" transform="translate(379.843,-1528.72)">
			<title>動的コネクタ.25</title>
			<path d="M0 1647.78 L0 1730.14 L86.03 1730.14" class="st14"/>
		</g>
		<g id="shape27-71" v:mID="27" v:groupContext="shape" v:layerMember="0" transform="translate(586.295,-1439.28)">
			<title>動的コネクタ.27</title>
			<path d="M0 1640.69 L30.29 1640.69" class="st14"/>
		</g>
		<g id="shape29-76" v:mID="29" v:groupContext="shape" transform="translate(726.139,-1443.53)">
			<title>シート.29</title>
			<desc>NO</desc>
			<v:textBlock v:margins="rect(4,4,4,4)" v:tabSpace="42.5197"/>
			<v:textRect cx="25.0416" cy="1637.78" width="50.09" height="20"/>
			<rect x="0" y="1627.78" width="50.0832" height="20" class="st10"/>
			<text x="17.2" y="1641.38" class="st11" v:langID="1041"><v:paragraph v:horizAlign="1"/><v:tabList/>NO</text>		</g>
		<g id="shape30-79" v:mID="30" v:groupContext="shape" transform="translate(623.622,-1287.78)">
			<title>ひし形.30</title>
			<desc>コモンネームがFQDNと 一致している</desc>
			<v:userDefs>
				<v:ud v:nameU="visVersion" v:prompt="" v:val="VT0(15):26"/>
			</v:userDefs>
			<v:textBlock v:margins="rect(4,4,4,4)" v:tabSpace="42.5197"/>
			<v:textRect cx="56.6929" cy="1605.26" width="113.39" height="85.0394"/>
			<g id="shadow30-80" v:groupContext="shadow" v:shadowOffsetX="0.345598" v:shadowOffsetY="-1.97279" v:shadowType="1"
					transform="matrix(1,0,0,1,0.345598,1.97279)" class="st1">
				<path d="M56.69 1647.78 L113.39 1605.26 L56.69 1562.74 L0 1605.26 L56.69 1647.78 Z" class="st2"/>
			</g>
			<path d="M56.69 1647.78 L113.39 1605.26 L56.69 1562.74 L0 1605.26 L56.69 1647.78 Z" class="st3"/>
			<text x="18.36" y="1602.6" class="st13" v:langID="1041"><v:paragraph v:horizAlign="1"/><v:tabList/>コモンネームが<tspan
						class="st5">FQDN</tspan>と<v:newlineChar/><tspan x="34.79" dy="1.331em" class="st12">一致</tspan>している</text>		</g>
		<g id="shape31-87" v:mID="31" v:groupContext="shape" v:layerMember="0" transform="translate(673.228,-1403.84)">
			<title>動的コネクタ.31</title>
			<path d="M7.09 1647.78 L7.09 1671.76" class="st14"/>
		</g>
		<g id="shape34-92" v:mID="34" v:groupContext="shape" transform="translate(763.937,-1287.78)">
			<title>楕円.34</title>
			<desc>pass</desc>
			<v:userDefs>
				<v:ud v:nameU="visVersion" v:val="VT0(15):26"/>
			</v:userDefs>
			<v:textBlock v:margins="rect(4,4,4,4)" v:tabSpace="42.5197"/>
			<v:textRect cx="63.7795" cy="1605.26" width="111.62" height="74.4094"/>
			<g id="shadow34-93" v:groupContext="shadow" v:shadowOffsetX="0.345598" v:shadowOffsetY="-1.97279" v:shadowType="1"
					transform="matrix(1,0,0,1,0.345598,1.97279)" class="st1">
				<path d="M0 1605.26 A63.7795 42.5197 0 0 1 127.56 1605.26 A63.7795 42.5197 0 0 1 0 1605.26 Z" class="st2"/>
			</g>
			<path d="M0 1605.26 A63.7795 42.5197 0 0 1 127.56 1605.26 A63.7795 42.5197 0 0 1 0 1605.26 Z" class="st16"/>
			<text x="51.73" y="1608.26" class="st9" v:langID="1041"><v:paragraph v:horizAlign="1"/><v:tabList/>pass</text>		</g>
		<g id="shape35-98" v:mID="35" v:groupContext="shape" v:layerMember="0" transform="translate(737.008,-1323.21)">
			<title>動的コネクタ.35</title>
			<path d="M0 1640.69 L19.89 1640.69" class="st14"/>
		</g>
		<g id="shape37-103" v:mID="37" v:groupContext="shape" transform="translate(676.533,-1378.33)">
			<title>シート.37</title>
			<desc>YES</desc>
			<v:textBlock v:margins="rect(4,4,4,4)" v:tabSpace="42.5197"/>
			<v:textRect cx="17.955" cy="1637.78" width="35.92" height="20"/>
			<rect x="0" y="1627.78" width="35.91" height="20" class="st10"/>
			<text x="9.34" y="1641.38" class="st11" v:langID="1041"><v:paragraph v:horizAlign="1"/><v:tabList/>YES</text>		</g>
		<g id="shape46-106" v:mID="46" v:groupContext="shape" transform="translate(771.024,-1403.8)">
			<title>長方形.46</title>
			<desc>エラーメッセージ</desc>
			<v:userDefs>
				<v:ud v:nameU="visVersion" v:val="VT0(15):26"/>
			</v:userDefs>
			<v:textBlock v:margins="rect(4,4,4,4)" v:tabSpace="42.5197"/>
			<v:textRect cx="56.6929" cy="1605.26" width="113.39" height="85.0394"/>
			<g id="shadow46-107" v:groupContext="shadow" v:shadowOffsetX="0.345598" v:shadowOffsetY="-1.97279" v:shadowType="1"
					transform="matrix(1,0,0,1,0.345598,1.97279)" class="st1">
				<rect x="0" y="1562.74" width="113.386" height="85.0394" class="st2"/>
			</g>
			<rect x="0" y="1562.74" width="113.386" height="85.0394" class="st17"/>
			<text x="22.24" y="1608.59" class="st4" v:langID="1041"><v:paragraph v:horizAlign="1"/><v:tabList/>エラーメッセージ</text>		</g>
		<g id="shape47-112" v:mID="47" v:groupContext="shape" v:layerMember="0" transform="translate(737.008,-1453.43)">
			<title>動的コネクタ.47</title>
			<path d="M0 1654.84 L10.63 1654.84 L10.63 1654.89 L26.98 1654.89" class="st14"/>
		</g>
		<g id="shape59-117" v:mID="59" v:groupContext="shape" transform="translate(472.909,-699.591)">
			<title>長方形.59</title>
			<desc>発行日の確認</desc>
			<v:userDefs>
				<v:ud v:nameU="visVersion" v:val="VT0(15):26"/>
			</v:userDefs>
			<v:textBlock v:margins="rect(4,4,4,4)" v:tabSpace="42.5197"/>
			<v:textRect cx="56.6929" cy="1605.26" width="113.39" height="85.0394"/>
			<g id="shadow59-118" v:groupContext="shadow" v:shadowOffsetX="0.345598" v:shadowOffsetY="-1.97279" v:shadowType="1"
					transform="matrix(1,0,0,1,0.345598,1.97279)" class="st1">
				<rect x="0" y="1562.74" width="113.386" height="85.0394" class="st2"/>
			</g>
			<rect x="0" y="1562.74" width="113.386" height="85.0394" class="st3"/>
			<text x="26.69" y="1608.59" class="st4" v:langID="1041"><v:paragraph v:horizAlign="1"/><v:tabList/>発行日の確認</text>		</g>
		<g id="shape60-123" v:mID="60" v:groupContext="shape" v:layerMember="0" transform="translate(379.843,-1528.72)">
			<title>動的コネクタ.60</title>
			<path d="M0 1647.78 L0 2434.39 L86.03 2434.39" class="st14"/>
		</g>
		<g id="shape61-128" v:mID="61" v:groupContext="shape" transform="translate(623.622,-699.591)">
			<title>ひし形.61</title>
			<desc>発行日が作業期間の 以前の日付であること</desc>
			<v:userDefs>
				<v:ud v:nameU="visVersion" v:prompt="" v:val="VT0(15):26"/>
			</v:userDefs>
			<v:textBlock v:margins="rect(4,4,4,4)" v:tabSpace="42.5197"/>
			<v:textRect cx="56.6929" cy="1605.26" width="113.39" height="85.0394"/>
			<g id="shadow61-129" v:groupContext="shadow" v:shadowOffsetX="0.345598" v:shadowOffsetY="-1.97279" v:shadowType="1"
					transform="matrix(1,0,0,1,0.345598,1.97279)" class="st1">
				<path d="M56.69 1647.78 L113.39 1605.26 L56.69 1562.74 L0 1605.26 L56.69 1647.78 Z" class="st2"/>
			</g>
			<path d="M56.69 1647.78 L113.39 1605.26 L56.69 1562.74 L0 1605.26 L56.69 1647.78 Z" class="st3"/>
			<text x="20.69" y="1602.6" class="st13" v:langID="1041"><v:paragraph v:horizAlign="1"/><v:tabList/>発行日が作業期間の<v:newlineChar/><tspan
						x="19.61" dy="1.331em" class="st12">以前</tspan>の日付であること</text>		</g>
		<g id="shape62-135" v:mID="62" v:groupContext="shape" transform="translate(616.535,-586.205)">
			<title>楕円.62</title>
			<desc>pass</desc>
			<v:userDefs>
				<v:ud v:nameU="visVersion" v:val="VT0(15):26"/>
			</v:userDefs>
			<v:textBlock v:margins="rect(4,4,4,4)" v:tabSpace="42.5197"/>
			<v:textRect cx="63.7795" cy="1605.26" width="111.62" height="74.4094"/>
			<g id="shadow62-136" v:groupContext="shadow" v:shadowOffsetX="0.345598" v:shadowOffsetY="-1.97279" v:shadowType="1"
					transform="matrix(1,0,0,1,0.345598,1.97279)" class="st1">
				<path d="M0 1605.26 A63.7795 42.5197 0 0 1 127.56 1605.26 A63.7795 42.5197 0 0 1 0 1605.26 Z" class="st2"/>
			</g>
			<path d="M0 1605.26 A63.7795 42.5197 0 0 1 127.56 1605.26 A63.7795 42.5197 0 0 1 0 1605.26 Z" class="st16"/>
			<text x="51.73" y="1608.26" class="st9" v:langID="1041"><v:paragraph v:horizAlign="1"/><v:tabList/>pass</text>		</g>
		<g id="shape63-141" v:mID="63" v:groupContext="shape" v:layerMember="0" transform="translate(673.228,-699.591)">
			<title>動的コネクタ.63</title>
			<path d="M7.09 1647.78 L7.09 1669.09" class="st14"/>
		</g>
		<g id="shape64-146" v:mID="64" v:groupContext="shape" v:layerMember="0" transform="translate(586.295,-735.024)">
			<title>動的コネクタ.64</title>
			<path d="M0 1640.69 L30.29 1640.69" class="st14"/>
		</g>
		<g id="shape65-151" v:mID="65" v:groupContext="shape" transform="translate(676.533,-676.913)">
			<title>シート.65</title>
			<desc>YES</desc>
			<v:textBlock v:margins="rect(4,4,4,4)" v:tabSpace="42.5197"/>
			<v:textRect cx="17.955" cy="1637.78" width="35.92" height="20"/>
			<rect x="0" y="1627.78" width="35.91" height="20" class="st10"/>
			<text x="9.34" y="1641.38" class="st11" v:langID="1041"><v:paragraph v:horizAlign="1"/><v:tabList/>YES</text>		</g>
		<g id="shape66-154" v:mID="66" v:groupContext="shape" transform="translate(765.354,-699.591)">
			<title>長方形.66</title>
			<desc>エラーメッセージ</desc>
			<v:userDefs>
				<v:ud v:nameU="visVersion" v:val="VT0(15):26"/>
			</v:userDefs>
			<v:textBlock v:margins="rect(4,4,4,4)" v:tabSpace="42.5197"/>
			<v:textRect cx="56.6929" cy="1605.26" width="113.39" height="85.0394"/>
			<g id="shadow66-155" v:groupContext="shadow" v:shadowOffsetX="0.345598" v:shadowOffsetY="-1.97279" v:shadowType="1"
					transform="matrix(1,0,0,1,0.345598,1.97279)" class="st1">
				<rect x="0" y="1562.74" width="113.386" height="85.0394" class="st2"/>
			</g>
			<rect x="0" y="1562.74" width="113.386" height="85.0394" class="st17"/>
			<text x="22.24" y="1608.59" class="st4" v:langID="1041"><v:paragraph v:horizAlign="1"/><v:tabList/>エラーメッセージ</text>		</g>
		<g id="shape67-160" v:mID="67" v:groupContext="shape" v:layerMember="0" transform="translate(737.008,-735.024)">
			<title>動的コネクタ.67</title>
			<path d="M0 1640.69 L21.31 1640.69" class="st14"/>
		</g>
		<g id="shape68-165" v:mID="68" v:groupContext="shape" transform="translate(729.444,-742.11)">
			<title>シート.68</title>
			<desc>NO</desc>
			<v:textBlock v:margins="rect(4,4,4,4)" v:tabSpace="42.5197"/>
			<v:textRect cx="17.955" cy="1637.78" width="35.92" height="20"/>
			<rect x="0" y="1627.78" width="35.91" height="20" class="st10"/>
			<text x="10.11" y="1641.38" class="st11" v:langID="1041"><v:paragraph v:horizAlign="1"/><v:tabList/>NO</text>		</g>
		<g id="shape69-168" v:mID="69" v:groupContext="shape" transform="translate(472.909,-458.646)">
			<title>長方形.69</title>
			<desc>有効期限の確認</desc>
			<v:userDefs>
				<v:ud v:nameU="visVersion" v:val="VT0(15):26"/>
			</v:userDefs>
			<v:textBlock v:margins="rect(4,4,4,4)" v:tabSpace="42.5197"/>
			<v:textRect cx="56.6929" cy="1605.26" width="113.39" height="85.0394"/>
			<g id="shadow69-169" v:groupContext="shadow" v:shadowOffsetX="0.345598" v:shadowOffsetY="-1.97279" v:shadowType="1"
					transform="matrix(1,0,0,1,0.345598,1.97279)" class="st1">
				<rect x="0" y="1562.74" width="113.386" height="85.0394" class="st2"/>
			</g>
			<rect x="0" y="1562.74" width="113.386" height="85.0394" class="st3"/>
			<text x="21.69" y="1608.59" class="st4" v:langID="1041"><v:paragraph v:horizAlign="1"/><v:tabList/>有効期限の確認</text>		</g>
		<g id="shape70-174" v:mID="70" v:groupContext="shape" v:layerMember="0" transform="translate(379.843,-1528.72)">
			<title>動的コネクタ.70</title>
			<path d="M0 1647.78 L0 2675.34 L86.03 2675.34" class="st14"/>
		</g>
		<g id="shape71-179" v:mID="71" v:groupContext="shape" transform="translate(623.622,-458.646)">
			<title>ひし形.71</title>
			<desc>有効期限が作業期間の 以降の日付であること</desc>
			<v:userDefs>
				<v:ud v:nameU="visVersion" v:prompt="" v:val="VT0(15):26"/>
			</v:userDefs>
			<v:textBlock v:margins="rect(4,4,4,4)" v:tabSpace="42.5197"/>
			<v:textRect cx="56.6929" cy="1605.26" width="113.39" height="85.0394"/>
			<g id="shadow71-180" v:groupContext="shadow" v:shadowOffsetX="0.345598" v:shadowOffsetY="-1.97279" v:shadowType="1"
					transform="matrix(1,0,0,1,0.345598,1.97279)" class="st1">
				<path d="M56.69 1647.78 L113.39 1605.26 L56.69 1562.74 L0 1605.26 L56.69 1647.78 Z" class="st2"/>
			</g>
			<path d="M56.69 1647.78 L113.39 1605.26 L56.69 1562.74 L0 1605.26 L56.69 1647.78 Z" class="st3"/>
			<text x="16.69" y="1602.6" class="st13" v:langID="1041"><v:paragraph v:horizAlign="1"/><v:tabList/>有効期限が作業期間の<v:newlineChar/><tspan
						x="19.61" dy="1.331em" class="st12">以降</tspan>の日付であること</text>		</g>
		<g id="shape72-186" v:mID="72" v:groupContext="shape" transform="translate(765.354,-458.646)">
			<title>長方形.72</title>
			<desc>エラーメッセージ</desc>
			<v:userDefs>
				<v:ud v:nameU="visVersion" v:val="VT0(15):26"/>
			</v:userDefs>
			<v:textBlock v:margins="rect(4,4,4,4)" v:tabSpace="42.5197"/>
			<v:textRect cx="56.6929" cy="1605.26" width="113.39" height="85.0394"/>
			<g id="shadow72-187" v:groupContext="shadow" v:shadowOffsetX="0.345598" v:shadowOffsetY="-1.97279" v:shadowType="1"
					transform="matrix(1,0,0,1,0.345598,1.97279)" class="st1">
				<rect x="0" y="1562.74" width="113.386" height="85.0394" class="st2"/>
			</g>
			<rect x="0" y="1562.74" width="113.386" height="85.0394" class="st17"/>
			<text x="22.24" y="1608.59" class="st4" v:langID="1041"><v:paragraph v:horizAlign="1"/><v:tabList/>エラーメッセージ</text>		</g>
		<g id="shape73-192" v:mID="73" v:groupContext="shape" transform="translate(616.535,-331.087)">
			<title>楕円.73</title>
			<desc>pass</desc>
			<v:userDefs>
				<v:ud v:nameU="visVersion" v:val="VT0(15):26"/>
			</v:userDefs>
			<v:textBlock v:margins="rect(4,4,4,4)" v:tabSpace="42.5197"/>
			<v:textRect cx="63.7795" cy="1605.26" width="111.62" height="74.4094"/>
			<g id="shadow73-193" v:groupContext="shadow" v:shadowOffsetX="0.345598" v:shadowOffsetY="-1.97279" v:shadowType="1"
					transform="matrix(1,0,0,1,0.345598,1.97279)" class="st1">
				<path d="M0 1605.26 A63.7795 42.5197 0 0 1 127.56 1605.26 A63.7795 42.5197 0 0 1 0 1605.26 Z" class="st2"/>
			</g>
			<path d="M0 1605.26 A63.7795 42.5197 0 0 1 127.56 1605.26 A63.7795 42.5197 0 0 1 0 1605.26 Z" class="st16"/>
			<text x="51.73" y="1608.26" class="st9" v:langID="1041"><v:paragraph v:horizAlign="1"/><v:tabList/>pass</text>		</g>
		<g id="shape74-198" v:mID="74" v:groupContext="shape" v:layerMember="0" transform="translate(737.008,-494.079)">
			<title>動的コネクタ.74</title>
			<path d="M0 1640.69 L21.31 1640.69" class="st14"/>
		</g>
		<g id="shape75-203" v:mID="75" v:groupContext="shape" v:layerMember="0" transform="translate(673.228,-458.646)">
			<title>動的コネクタ.75</title>
			<path d="M7.09 1647.78 L7.09 1683.26" class="st14"/>
		</g>
		<g id="shape76-208" v:mID="76" v:groupContext="shape" transform="translate(729.444,-505.339)">
			<title>シート.76</title>
			<desc>NO</desc>
			<v:textBlock v:margins="rect(4,4,4,4)" v:tabSpace="42.5197"/>
			<v:textRect cx="17.955" cy="1637.78" width="35.92" height="20"/>
			<rect x="0" y="1627.78" width="35.91" height="20" class="st10"/>
			<text x="10.11" y="1641.38" class="st11" v:langID="1041"><v:paragraph v:horizAlign="1"/><v:tabList/>NO</text>		</g>
		<g id="shape77-211" v:mID="77" v:groupContext="shape" transform="translate(676.533,-437.386)">
			<title>シート.77</title>
			<desc>YES</desc>
			<v:textBlock v:margins="rect(4,4,4,4)" v:tabSpace="42.5197"/>
			<v:textRect cx="17.955" cy="1637.78" width="35.92" height="20"/>
			<rect x="0" y="1627.78" width="35.91" height="20" class="st10"/>
			<text x="9.34" y="1641.38" class="st11" v:langID="1041"><v:paragraph v:horizAlign="1"/><v:tabList/>YES</text>		</g>
		<g id="shape78-214" v:mID="78" v:groupContext="shape" v:layerMember="0" transform="translate(586.295,-494.079)">
			<title>動的コネクタ.78</title>
			<path d="M0 1640.69 L30.29 1640.69" class="st14"/>
		</g>
		<g id="shape79-219" v:mID="79" v:groupContext="shape" transform="translate(472.909,-217.701)">
			<title>長方形.79</title>
			<desc>発行者の確認</desc>
			<v:userDefs>
				<v:ud v:nameU="visVersion" v:val="VT0(15):26"/>
			</v:userDefs>
			<v:textBlock v:margins="rect(4,4,4,4)" v:tabSpace="42.5197"/>
			<v:textRect cx="56.6929" cy="1605.26" width="113.39" height="85.0394"/>
			<g id="shadow79-220" v:groupContext="shadow" v:shadowOffsetX="0.345598" v:shadowOffsetY="-1.97279" v:shadowType="1"
					transform="matrix(1,0,0,1,0.345598,1.97279)" class="st1">
				<rect x="0" y="1562.74" width="113.386" height="85.0394" class="st2"/>
			</g>
			<rect x="0" y="1562.74" width="113.386" height="85.0394" class="st3"/>
			<text x="26.69" y="1608.59" class="st4" v:langID="1041"><v:paragraph v:horizAlign="1"/><v:tabList/>発行者の確認</text>		</g>
		<g id="shape80-225" v:mID="80" v:groupContext="shape" v:layerMember="0" transform="translate(379.843,-1528.72)">
			<title>動的コネクタ.80</title>
			<path d="M0 1647.78 L0 2916.28 L86.03 2916.28" class="st14"/>
		</g>
		<g id="shape81-230" v:mID="81" v:groupContext="shape" transform="translate(623.622,-217.701)">
			<title>ひし形.81</title>
			<desc>証明書に発行者のコモン ネームが含まれていること</desc>
			<v:userDefs>
				<v:ud v:nameU="visVersion" v:prompt="" v:val="VT0(15):26"/>
			</v:userDefs>
			<v:textBlock v:margins="rect(4,4,4,4)" v:tabSpace="42.5197"/>
			<v:textRect cx="56.6929" cy="1605.26" width="113.39" height="85.0394"/>
			<g id="shadow81-231" v:groupContext="shadow" v:shadowOffsetX="0.345598" v:shadowOffsetY="-1.97279" v:shadowType="1"
					transform="matrix(1,0,0,1,0.345598,1.97279)" class="st1">
				<path d="M56.69 1647.78 L113.39 1605.26 L56.69 1562.74 L0 1605.26 L56.69 1647.78 Z" class="st2"/>
			</g>
			<path d="M56.69 1647.78 L113.39 1605.26 L56.69 1562.74 L0 1605.26 L56.69 1647.78 Z" class="st3"/>
			<text x="14.69" y="1602.6" class="st13" v:langID="1041"><v:paragraph v:horizAlign="1"/><v:tabList/>証明書に発行者のコモン<v:newlineChar/><tspan
						x="12.57" dy="1.331em" class="st12">ネームが</tspan>含まれていること</text>		</g>
		<g id="shape82-237" v:mID="82" v:groupContext="shape" transform="translate(765.354,-217.701)">
			<title>長方形.82</title>
			<desc>エラーメッセージ</desc>
			<v:userDefs>
				<v:ud v:nameU="visVersion" v:val="VT0(15):26"/>
			</v:userDefs>
			<v:textBlock v:margins="rect(4,4,4,4)" v:tabSpace="42.5197"/>
			<v:textRect cx="56.6929" cy="1605.26" width="113.39" height="85.0394"/>
			<g id="shadow82-238" v:groupContext="shadow" v:shadowOffsetX="0.345598" v:shadowOffsetY="-1.97279" v:shadowType="1"
					transform="matrix(1,0,0,1,0.345598,1.97279)" class="st1">
				<rect x="0" y="1562.74" width="113.386" height="85.0394" class="st2"/>
			</g>
			<rect x="0" y="1562.74" width="113.386" height="85.0394" class="st17"/>
			<text x="22.24" y="1608.59" class="st4" v:langID="1041"><v:paragraph v:horizAlign="1"/><v:tabList/>エラーメッセージ</text>		</g>
		<g id="shape83-243" v:mID="83" v:groupContext="shape" v:layerMember="0" transform="translate(737.008,-253.134)">
			<title>動的コネクタ.83</title>
			<path d="M0 1640.69 L21.31 1640.69" class="st14"/>
		</g>
		<g id="shape84-248" v:mID="84" v:groupContext="shape" transform="translate(731.339,-257.386)">
			<title>シート.84</title>
			<desc>NO</desc>
			<v:textBlock v:margins="rect(4,4,4,4)" v:tabSpace="42.5197"/>
			<v:textRect cx="17.955" cy="1637.78" width="35.92" height="20"/>
			<rect x="0" y="1627.78" width="35.91" height="20" class="st10"/>
			<text x="10.11" y="1641.38" class="st11" v:langID="1041"><v:paragraph v:horizAlign="1"/><v:tabList/>NO</text>		</g>
		<g id="shape85-251" v:mID="85" v:groupContext="shape" v:layerMember="0" transform="translate(586.295,-253.134)">
			<title>動的コネクタ.85</title>
			<path d="M0 1640.69 L30.29 1640.69" class="st14"/>
		</g>
		<g id="shape90-256" v:mID="90" v:groupContext="shape" transform="translate(616.535,-90.1417)">
			<title>楕円.90</title>
			<desc>pass</desc>
			<v:userDefs>
				<v:ud v:nameU="visVersion" v:val="VT0(15):26"/>
			</v:userDefs>
			<v:textBlock v:margins="rect(4,4,4,4)" v:tabSpace="42.5197"/>
			<v:textRect cx="63.7795" cy="1605.26" width="111.62" height="74.4094"/>
			<g id="shadow90-257" v:groupContext="shadow" v:shadowOffsetX="0.345598" v:shadowOffsetY="-1.97279" v:shadowType="1"
					transform="matrix(1,0,0,1,0.345598,1.97279)" class="st1">
				<path d="M0 1605.26 A63.7795 42.5197 0 0 1 127.56 1605.26 A63.7795 42.5197 0 0 1 0 1605.26 Z" class="st2"/>
			</g>
			<path d="M0 1605.26 A63.7795 42.5197 0 0 1 127.56 1605.26 A63.7795 42.5197 0 0 1 0 1605.26 Z" class="st16"/>
			<text x="51.73" y="1608.26" class="st9" v:langID="1041"><v:paragraph v:horizAlign="1"/><v:tabList/>pass</text>		</g>
		<g id="shape91-262" v:mID="91" v:groupContext="shape" v:layerMember="0" transform="translate(673.228,-217.701)">
			<title>動的コネクタ.91</title>
			<path d="M7.09 1647.78 L7.09 1683.26" class="st14"/>
		</g>
		<g id="shape93-267" v:mID="93" v:groupContext="shape" transform="translate(676.533,-193.528)">
			<title>シート.93</title>
			<desc>YES</desc>
			<v:textBlock v:margins="rect(4,4,4,4)" v:tabSpace="42.5197"/>
			<v:textRect cx="17.955" cy="1637.78" width="35.92" height="20"/>
			<rect x="0" y="1627.78" width="35.91" height="20" class="st10"/>
			<text x="9.34" y="1641.38" class="st11" v:langID="1041"><v:paragraph v:horizAlign="1"/><v:tabList/>YES</text>		</g>
		<g id="shape96-270" v:mID="96" v:groupContext="shape" transform="translate(623.622,-1174.39)">
			<title>ひし形.96</title>
			<desc>証明書がワイルドカード証明書 かつ FQDNがワイルドカードに含まれている</desc>
			<v:userDefs>
				<v:ud v:nameU="visVersion" v:prompt="" v:val="VT0(15):26"/>
			</v:userDefs>
			<v:textBlock v:margins="rect(4,4,4,4)" v:tabSpace="42.5197"/>
			<v:textRect cx="56.6929" cy="1605.26" width="113.39" height="85.0394"/>
			<g id="shadow96-271" v:groupContext="shadow" v:shadowOffsetX="0.345598" v:shadowOffsetY="-1.97279" v:shadowType="1"
					transform="matrix(1,0,0,1,0.345598,1.97279)" class="st1">
				<path d="M56.69 1647.78 L113.39 1605.26 L56.69 1562.74 L0 1605.26 L56.69 1647.78 Z" class="st2"/>
			</g>
			<path d="M56.69 1647.78 L113.39 1605.26 L56.69 1562.74 L0 1605.26 L56.69 1647.78 Z" class="st3"/>
			<text x="17.8" y="1599.27" class="st18" v:langID="1041"><v:paragraph v:horizAlign="1"/><v:tabList/>証明書がワイルドカード証明書<v:newlineChar/><tspan
						x="50.83" dy="1.331em" class="st12">かつ<v:newlineChar/></tspan><tspan x="8.99" dy="1.331em" class="st5">FQDN</tspan>がワイルドカードに含まれている</text>		</g>
		<g id="shape99-278" v:mID="99" v:groupContext="shape" v:layerMember="0" transform="translate(673.228,-1287.78)">
			<title>動的コネクタ.99</title>
			<path d="M7.09 1647.78 L7.09 1669.09" class="st14"/>
		</g>
		<g id="shape101-283" v:mID="101" v:groupContext="shape" transform="translate(763.937,-1174.39)">
			<title>楕円.101</title>
			<desc>pass</desc>
			<v:userDefs>
				<v:ud v:nameU="visVersion" v:val="VT0(15):26"/>
			</v:userDefs>
			<v:textBlock v:margins="rect(4,4,4,4)" v:tabSpace="42.5197"/>
			<v:textRect cx="63.7795" cy="1605.26" width="111.62" height="74.4094"/>
			<g id="shadow101-284" v:groupContext="shadow" v:shadowOffsetX="0.345598" v:shadowOffsetY="-1.97279" v:shadowType="1"
					transform="matrix(1,0,0,1,0.345598,1.97279)" class="st1">
				<path d="M0 1605.26 A63.7795 42.5197 0 0 1 127.56 1605.26 A63.7795 42.5197 0 0 1 0 1605.26 Z" class="st2"/>
			</g>
			<path d="M0 1605.26 A63.7795 42.5197 0 0 1 127.56 1605.26 A63.7795 42.5197 0 0 1 0 1605.26 Z" class="st16"/>
			<text x="51.73" y="1608.26" class="st9" v:langID="1041"><v:paragraph v:horizAlign="1"/><v:tabList/>pass</text>		</g>
		<g id="shape102-289" v:mID="102" v:groupContext="shape" v:layerMember="0" transform="translate(737.008,-1209.83)">
			<title>動的コネクタ.102</title>
			<path d="M0 1640.69 L19.89 1640.69" class="st14"/>
		</g>
		<g id="shape103-294" v:mID="103" v:groupContext="shape" transform="translate(729.444,-1330.3)">
			<title>シート.103</title>
			<desc>YES</desc>
			<v:textBlock v:margins="rect(4,4,4,4)" v:tabSpace="42.5197"/>
			<v:textRect cx="17.955" cy="1637.78" width="35.92" height="20"/>
			<rect x="0" y="1627.78" width="35.91" height="20" class="st10"/>
			<text x="9.34" y="1641.38" class="st11" v:langID="1041"><v:paragraph v:horizAlign="1"/><v:tabList/>YES</text>		</g>
		<g id="shape104-297" v:mID="104" v:groupContext="shape" transform="translate(669.447,-1262.27)">
			<title>シート.104</title>
			<desc>NO</desc>
			<v:textBlock v:margins="rect(4,4,4,4)" v:tabSpace="42.5197"/>
			<v:textRect cx="25.0416" cy="1637.78" width="50.09" height="20"/>
			<rect x="0" y="1627.78" width="50.0832" height="20" class="st10"/>
			<text x="17.2" y="1641.38" class="st11" v:langID="1041"><v:paragraph v:horizAlign="1"/><v:tabList/>NO</text>		</g>
		<g id="shape106-300" v:mID="106" v:groupContext="shape" transform="translate(623.622,-1061.01)">
			<title>長方形.32</title>
			<desc>サブジェクト別名の確認</desc>
			<v:userDefs>
				<v:ud v:nameU="visVersion" v:val="VT0(15):26"/>
			</v:userDefs>
			<v:textBlock v:margins="rect(4,4,4,4)" v:tabSpace="42.5197"/>
			<v:textRect cx="56.6929" cy="1605.26" width="113.39" height="85.0394"/>
			<g id="shadow106-301" v:groupContext="shadow" v:shadowOffsetX="0.345598" v:shadowOffsetY="-1.97279" v:shadowType="1"
					transform="matrix(1,0,0,1,0.345598,1.97279)" class="st1">
				<rect x="0" y="1562.74" width="113.386" height="85.0394" class="st2"/>
			</g>
			<rect x="0" y="1562.74" width="113.386" height="85.0394" class="st3"/>
			<text x="6.81" y="1608.59" class="st4" v:langID="1041"><v:paragraph v:horizAlign="1"/><v:tabList/>サブジェクト別名の確認</text>		</g>
		<g id="shape107-306" v:mID="107" v:groupContext="shape" transform="translate(760.819,-1061.01)">
			<title>ひし形.40</title>
			<desc>証明書にサブジェクト別名 が含まれている</desc>
			<v:userDefs>
				<v:ud v:nameU="visVersion" v:prompt="" v:val="VT0(15):26"/>
			</v:userDefs>
			<v:textBlock v:margins="rect(4,4,4,4)" v:tabSpace="42.5197"/>
			<v:textRect cx="56.6929" cy="1605.26" width="113.39" height="85.0394"/>
			<g id="shadow107-307" v:groupContext="shadow" v:shadowOffsetX="0.345598" v:shadowOffsetY="-1.97279" v:shadowType="1"
					transform="matrix(1,0,0,1,0.345598,1.97279)" class="st1">
				<path d="M56.69 1647.78 L113.39 1605.26 L56.69 1562.74 L0 1605.26 L56.69 1647.78 Z" class="st2"/>
			</g>
			<path d="M56.69 1647.78 L113.39 1605.26 L56.69 1562.74 L0 1605.26 L56.69 1647.78 Z" class="st3"/>
			<text x="13.02" y="1602.6" class="st13" v:langID="1041"><v:paragraph v:horizAlign="1"/><v:tabList/>証明書にサブジェクト別名<v:newlineChar/><tspan
						x="30.29" dy="1.331em" class="st12">が</tspan>含まれている</text>		</g>
		<g id="shape108-313" v:mID="108" v:groupContext="shape" v:layerMember="0" transform="translate(737.008,-1096.44)">
			<title>動的コネクタ.41</title>
			<path d="M0 1640.69 L16.77 1640.69" class="st14"/>
		</g>
		<g id="shape109-318" v:mID="109" v:groupContext="shape" transform="translate(623.622,-1071.98)">
			<title>シート.109</title>
			<desc>NO</desc>
			<v:textBlock v:margins="rect(4,4,4,4)" v:tabSpace="42.5197"/>
			<v:textRect cx="25.0416" cy="1637.78" width="50.09" height="20"/>
			<rect x="0" y="1627.78" width="50.0832" height="20" class="st10"/>
			<text x="17.2" y="1641.38" class="st11" v:langID="1041"><v:paragraph v:horizAlign="1"/><v:tabList/>NO</text>		</g>
		<g id="shape110-321" v:mID="110" v:groupContext="shape" transform="translate(873.258,-1100.69)">
			<title>シート.110</title>
			<desc>NO</desc>
			<v:textBlock v:margins="rect(4,4,4,4)" v:tabSpace="42.5197"/>
			<v:textRect cx="17.955" cy="1637.78" width="35.92" height="20"/>
			<rect x="0" y="1627.78" width="35.91" height="20" class="st10"/>
			<text x="10.11" y="1641.38" class="st11" v:langID="1041"><v:paragraph v:horizAlign="1"/><v:tabList/>NO</text>		</g>
		<g id="shape111-324" v:mID="111" v:groupContext="shape" transform="translate(910.115,-1061.01)">
			<title>長方形.48</title>
			<desc>エラーメッセージ</desc>
			<v:userDefs>
				<v:ud v:nameU="visVersion" v:val="VT0(15):26"/>
			</v:userDefs>
			<v:textBlock v:margins="rect(4,4,4,4)" v:tabSpace="42.5197"/>
			<v:textRect cx="56.6929" cy="1605.26" width="113.39" height="85.0394"/>
			<g id="shadow111-325" v:groupContext="shadow" v:shadowOffsetX="0.345598" v:shadowOffsetY="-1.97279" v:shadowType="1"
					transform="matrix(1,0,0,1,0.345598,1.97279)" class="st1">
				<rect x="0" y="1562.74" width="113.386" height="85.0394" class="st2"/>
			</g>
			<rect x="0" y="1562.74" width="113.386" height="85.0394" class="st17"/>
			<text x="22.24" y="1608.59" class="st4" v:langID="1041"><v:paragraph v:horizAlign="1"/><v:tabList/>エラーメッセージ</text>		</g>
		<g id="shape112-330" v:mID="112" v:groupContext="shape" v:layerMember="0" transform="translate(874.205,-1096.44)">
			<title>動的コネクタ.49</title>
			<path d="M0 1640.69 L28.87 1640.69" class="st14"/>
		</g>
		<g id="shape113-335" v:mID="113" v:groupContext="shape" transform="translate(760.819,-947.622)">
			<title>ひし形.50</title>
			<desc>FQDNがサブジェクト別名 に含まれている</desc>
			<v:userDefs>
				<v:ud v:nameU="visVersion" v:prompt="" v:val="VT0(15):26"/>
			</v:userDefs>
			<v:textBlock v:margins="rect(4,4,4,4)" v:tabSpace="42.5197"/>
			<v:textRect cx="56.6929" cy="1605.26" width="113.39" height="85.0394"/>
			<g id="shadow113-336" v:groupContext="shadow" v:shadowOffsetX="0.345598" v:shadowOffsetY="-1.97279" v:shadowType="1"
					transform="matrix(1,0,0,1,0.345598,1.97279)" class="st1">
				<path d="M56.69 1647.78 L113.39 1605.26 L56.69 1562.74 L0 1605.26 L56.69 1647.78 Z" class="st2"/>
			</g>
			<path d="M56.69 1647.78 L113.39 1605.26 L56.69 1562.74 L0 1605.26 L56.69 1647.78 Z" class="st3"/>
			<text x="15.21" y="1602.6" class="st19" v:langID="1041"><v:paragraph v:horizAlign="1"/><v:tabList/>FQDN<tspan
						class="st7">がサブジェクト</tspan><tspan class="st7">別名<v:newlineChar/></tspan><tspan x="30.52" dy="1.331em"
						class="st7">に</tspan><tspan class="st7">含</tspan><tspan class="st7">まれている</tspan></text>		</g>
		<g id="shape114-346" v:mID="114" v:groupContext="shape" transform="translate(910.115,-947.622)">
			<title>長方形.51</title>
			<desc>エラーメッセージ</desc>
			<v:userDefs>
				<v:ud v:nameU="visVersion" v:val="VT0(15):26"/>
			</v:userDefs>
			<v:textBlock v:margins="rect(4,4,4,4)" v:tabSpace="42.5197"/>
			<v:textRect cx="56.6929" cy="1605.26" width="113.39" height="85.0394"/>
			<g id="shadow114-347" v:groupContext="shadow" v:shadowOffsetX="0.345598" v:shadowOffsetY="-1.97279" v:shadowType="1"
					transform="matrix(1,0,0,1,0.345598,1.97279)" class="st1">
				<rect x="0" y="1562.74" width="113.386" height="85.0394" class="st2"/>
			</g>
			<rect x="0" y="1562.74" width="113.386" height="85.0394" class="st17"/>
			<text x="22.24" y="1608.59" class="st4" v:langID="1041"><v:paragraph v:horizAlign="1"/><v:tabList/>エラーメッセージ</text>		</g>
		<g id="shape115-352" v:mID="115" v:groupContext="shape" v:layerMember="0" transform="translate(874.205,-983.055)">
			<title>動的コネクタ.52</title>
			<path d="M0 1640.69 L28.87 1640.69" class="st14"/>
		</g>
		<g id="shape116-357" v:mID="116" v:groupContext="shape" v:layerMember="0" transform="translate(810.425,-1061.01)">
			<title>動的コネクタ.53</title>
			<path d="M7.09 1647.78 L7.09 1669.09" class="st14"/>
		</g>
		<g id="shape117-362" v:mID="117" v:groupContext="shape" transform="translate(874.205,-995.654)">
			<title>シート.117</title>
			<desc>NO</desc>
			<v:textBlock v:margins="rect(4,4,4,4)" v:tabSpace="42.5197"/>
			<v:textRect cx="17.955" cy="1637.78" width="35.92" height="20"/>
			<rect x="0" y="1627.78" width="35.91" height="20" class="st10"/>
			<text x="10.11" y="1641.38" class="st11" v:langID="1041"><v:paragraph v:horizAlign="1"/><v:tabList/>NO</text>		</g>
		<g id="shape118-365" v:mID="118" v:groupContext="shape" transform="translate(817.512,-1036.83)">
			<title>シート.118</title>
			<desc>YES</desc>
			<v:textBlock v:margins="rect(4,4,4,4)" v:tabSpace="42.5197"/>
			<v:textRect cx="17.955" cy="1637.78" width="35.92" height="20"/>
			<rect x="0" y="1627.78" width="35.91" height="20" class="st10"/>
			<text x="9.34" y="1641.38" class="st11" v:langID="1041"><v:paragraph v:horizAlign="1"/><v:tabList/>YES</text>		</g>
		<g id="shape119-368" v:mID="119" v:groupContext="shape" transform="translate(753.732,-834.236)">
			<title>楕円.56</title>
			<desc>pass</desc>
			<v:userDefs>
				<v:ud v:nameU="visVersion" v:val="VT0(15):26"/>
			</v:userDefs>
			<v:textBlock v:margins="rect(4,4,4,4)" v:tabSpace="42.5197"/>
			<v:textRect cx="63.7795" cy="1605.26" width="111.62" height="74.4094"/>
			<g id="shadow119-369" v:groupContext="shadow" v:shadowOffsetX="0.345598" v:shadowOffsetY="-1.97279" v:shadowType="1"
					transform="matrix(1,0,0,1,0.345598,1.97279)" class="st1">
				<path d="M0 1605.26 A63.7795 42.5197 0 0 1 127.56 1605.26 A63.7795 42.5197 0 0 1 0 1605.26 Z" class="st2"/>
			</g>
			<path d="M0 1605.26 A63.7795 42.5197 0 0 1 127.56 1605.26 A63.7795 42.5197 0 0 1 0 1605.26 Z" class="st16"/>
			<text x="51.73" y="1608.26" class="st9" v:langID="1041"><v:paragraph v:horizAlign="1"/><v:tabList/>pass</text>		</g>
		<g id="shape120-374" v:mID="120" v:groupContext="shape" v:layerMember="0" transform="translate(810.425,-947.622)">
			<title>動的コネクタ.57</title>
			<path d="M7.09 1647.78 L7.09 1669.09" class="st14"/>
		</g>
		<g id="shape121-379" v:mID="121" v:groupContext="shape" transform="translate(813.73,-923.449)">
			<title>シート.121</title>
			<desc>YES</desc>
			<v:textBlock v:margins="rect(4,4,4,4)" v:tabSpace="42.5197"/>
			<v:textRect cx="17.955" cy="1637.78" width="35.92" height="20"/>
			<rect x="0" y="1627.78" width="35.91" height="20" class="st10"/>
			<text x="9.34" y="1641.38" class="st11" v:langID="1041"><v:paragraph v:horizAlign="1"/><v:tabList/>YES</text>		</g>
		<g id="shape122-382" v:mID="122" v:groupContext="shape" transform="translate(729.444,-1216.91)">
			<title>シート.122</title>
			<desc>YES</desc>
			<v:textBlock v:margins="rect(4,4,4,4)" v:tabSpace="42.5197"/>
			<v:textRect cx="17.955" cy="1637.78" width="35.92" height="20"/>
			<rect x="0" y="1627.78" width="35.91" height="20" class="st10"/>
			<text x="9.34" y="1641.38" class="st11" v:langID="1041"><v:paragraph v:horizAlign="1"/><v:tabList/>YES</text>		</g>
		<g id="shape123-385" v:mID="123" v:groupContext="shape" v:layerMember="0" transform="translate(673.228,-1174.39)">
			<title>動的コネクタ.123</title>
			<path d="M7.09 1647.78 L7.09 1669.09" class="st14"/>
		</g>
	</g>
</svg>
